<?xml version="1.0" encoding="utf-8"?>
<!-- Generator: Adobe Illustrator 16.0.0, SVG Export Plug-In . SVG Version: 6.00 Build 0)  -->
<!DOCTYPE svg PUBLIC "-//W3C//DTD SVG 1.1//EN" "http://www.w3.org/Graphics/SVG/1.1/DTD/svg11.dtd">
<svg version="1.1" id="Layer_1" xmlns="http://www.w3.org/2000/svg" xmlns:xlink="http://www.w3.org/1999/xlink" x="0px" y="0px"
	 width="623.513px" height="90.727px" viewBox="0 0 623.513 90.727" enable-background="new 0 0 623.513 90.727"
	 xml:space="preserve">
<g>
	<g>
		<path d="M90.051,46.829C89.97,67.401,77.778,85.84,44.406,85.709L0,85.535L0.304,7.914L44.71,8.089
			C79.658,8.226,90.131,26.257,90.051,46.829z M73.785,46.766c0.052-13.146-6.555-24.902-29.504-24.992l-28.057-0.11l-0.196,50.248
			l28.056,0.11C67.033,72.111,73.733,59.912,73.785,46.766z"/>
		<path d="M167.792,66.351c-2.105,12.312-13.434,21.177-33.702,21.097c-22.873-0.09-38.632-11.46-38.555-31.229
			c0.077-19.574,15.295-31.259,38.386-31.168c23.326,0.092,35.293,11.067,34.2,34.221l-56.868-0.224
			c1.104,9.259,9.02,16.4,22.508,16.453c9.904,0.038,16.999-3.764,18.964-9.208L167.792,66.351z M112.015,50.001l40.668,0.159
			c-0.89-7.997-7.883-13.083-19.596-13.129C121.602,36.986,114.122,42.627,112.015,50.001z"/>
	</g>
	<g>
		<path d="M222.875,89.485c-31.788-0.125-50.704-15.788-50.603-41.898c0.104-26.346,19.143-42,50.931-41.875
			c26.888,0.105,43.505,11.613,45.592,31.571l0.174,1.663l-18.631-0.073l-0.33-1.043c-3.16-9.994-12.452-15.306-26.871-15.362
			c-19.94-0.078-31.414,9.105-31.478,25.195c-0.061,15.629,11.633,25.005,31.281,25.082c14.346,0.056,23.666-5.02,26.955-14.679
			l0.348-1.021l18.609,0.073l-0.192,1.665C266.395,78.399,249.707,89.59,222.875,89.485z M223.191,8.712
			c-29.909-0.117-47.822,14.42-47.919,38.887c-0.096,24.594,17.259,38.768,47.614,38.887c24.338,0.095,39.734-9.491,42.559-26.381
			l-13.083-0.051c-2.904,7.432-10.404,15.766-29.434,15.691c-21.527-0.085-34.338-10.587-34.27-28.094
			c0.069-17.732,12.963-28.268,34.489-28.184c19.153,0.075,26.564,8.73,29.365,16.414l13.083,0.051
			C262.938,18.701,247.594,8.808,223.191,8.712z"/>
		<path d="M308.623,89.632c-24.38-0.096-39.476-12.639-39.396-32.733c0.079-20.243,15.272-32.759,39.652-32.663
			c24.185,0.095,39.158,12.729,39.079,32.972C347.88,77.302,332.808,89.727,308.623,89.632z M308.867,27.235
			c-22.529-0.088-36.568,11.282-36.641,29.675c-0.072,18.521,13.538,29.632,36.408,29.722c22.672,0.089,36.251-10.916,36.323-29.437
			C345.031,38.524,331.539,27.324,308.867,27.235z M308.67,77.655c-14.419-0.057-23.704-8.181-23.655-20.695
			c0.049-12.465,9.62-20.803,23.817-20.747c14.01,0.055,23.389,8.467,23.34,20.933C332.123,69.66,322.898,77.711,308.67,77.655z
			 M308.82,39.213c-12.597-0.05-20.764,6.922-20.806,17.76c-0.043,10.856,7.876,17.632,20.667,17.683
			c12.406,0.049,20.449-6.829,20.49-17.521C329.215,46.296,321.227,39.262,308.82,39.213z"/>
		<path d="M381.566,89.88c-19.347-0.075-33.335-13.832-33.262-32.709c0.076-19.3,14.198-32.726,34.344-32.646
			c14.078,0.055,21.561,6.217,25.521,13.165l0.046-11.677l18.599,0.072l-0.245,62.622l-17.31-0.067l-0.169-1.303
			c-0.037-0.286-0.775-6.049-0.993-12.108C402.785,84.673,393.436,89.927,381.566,89.88z M382.637,27.524
			c-18.379-0.072-31.263,12.124-31.332,29.659c-0.066,17.138,12.665,29.628,30.273,29.696c17.439,0.068,23.959-11.931,26.173-18.207
			c-4.024,5.819-11.462,9.213-21.112,9.176c-13.444-0.053-22.444-8.338-22.396-20.615c0.05-12.711,8.693-20.575,22.557-20.521
			c10.533,0.041,18.121,3.739,21.797,10.268l-0.398-1.411C404.881,33.816,396.041,27.577,382.637,27.524z M411.912,85.649
			l11.669,0.046l0.222-56.622l-12.599-0.049l-0.105,26.828l-0.059-0.208c0.038,0.58,0.056,1.171,0.053,1.772
			c-0.001,0.189-0.003,0.379-0.009,0.564l0.007-0.021l-0.054,13.812C411.016,77.052,411.619,83.059,411.912,85.649z M386.787,39.713
			c-12.194-0.048-19.502,6.507-19.545,17.532c-0.041,10.646,7.576,17.557,19.408,17.604c13.184,0.051,21.4-6.633,21.442-17.443
			C408.137,46.214,400.371,39.766,386.787,39.713z"/>
		<path d="M448.493,88.793l-18.6-0.073l0.339-86.62l18.6,0.072L448.493,88.793z M432.905,85.731l12.6,0.05L445.82,5.16l-12.6-0.049
			L432.905,85.731z"/>
		<path d="M471.834,88.885l-18.6-0.073l0.245-62.622l18.599,0.073L471.834,88.885z M456.246,85.823l12.6,0.05l0.221-56.622
			l-12.599-0.05L456.246,85.823z M473.365,16.799l-21.097-0.083L452.334,0l21.097,0.083L473.365,16.799z M455.28,13.728l15.097,0.06
			l0.042-10.716l-15.097-0.06L455.28,13.728z"/>
		<path d="M509.285,89.031l-18.6-0.073l0.187-47.57l-15.35-0.06l0.059-15.052l15.35,0.061l0.063-16.349l18.6,0.072l-0.063,16.349
			l15.352,0.061l-0.06,15.052l-15.351-0.061L509.285,89.031z M493.697,85.97l12.6,0.05l0.187-47.57l15.351,0.061l0.036-9.052
			l-15.352-0.061l0.063-16.349L493.982,13l-0.063,16.349l-15.35-0.061l-0.035,9.052l15.35,0.061L493.697,85.97z"/>
		<path d="M546.471,89.177l-18.6-0.072l0.245-62.622l18.6,0.072L546.471,89.177z M530.883,86.116l12.6,0.049l0.222-56.622
			l-12.6-0.049L530.883,86.116z M548.003,17.092l-21.096-0.083l0.065-16.716l21.096,0.083L548.003,17.092z M529.919,14.021
			l15.096,0.059l0.042-10.715l-15.096-0.06L529.919,14.021z"/>
		<path d="M587.908,90.726c-24.407-0.096-40.127-12.945-40.05-32.735c0.078-19.937,15.736-32.757,39.892-32.662
			c12.572,0.05,21.969,3.255,27.929,9.527c5.691,5.99,8.304,14.827,7.765,26.264l-0.068,1.435l-56.525-0.221
			c1.836,8.297,9.614,13.401,20.74,13.445c8.845,0.035,15.733-3.191,17.549-8.218l0.359-0.994l17.896,0.07l-0.299,1.745
			C620.687,82.45,607.534,90.803,587.908,90.726z M587.738,28.328c-22.677-0.089-36.809,11.282-36.881,29.674
			c-0.07,18.244,14.131,29.634,37.062,29.724c17.179,0.067,28.922-6.662,31.847-18.104l-12.22-0.048
			c-2.715,5.743-10.233,9.242-19.969,9.204c-13.293-0.052-22.71-7.029-23.991-17.775l-0.202-1.684l57.112,0.224
			c0.229-9.887-2.12-17.492-6.992-22.62C608.129,31.266,599.46,28.374,587.738,28.328z M608.184,53.445l-44.332-0.173l0.543-1.904
			c2.492-8.716,11.12-14.104,22.521-14.059c12.198,0.048,20.079,5.455,21.082,14.464L608.184,53.445z M567.971,50.288l36.75,0.145
			c-1.581-6.422-7.963-10.085-17.816-10.123C577.797,40.273,570.747,44.048,567.971,50.288z"/>
	</g>
</g>
</svg>
