<?xml version="1.0" encoding="utf-8"?>
<!-- Generator: Adobe Illustrator 16.0.0, SVG Export Plug-In . SVG Version: 6.00 Build 0)  -->
<!DOCTYPE svg PUBLIC "-//W3C//DTD SVG 1.1//EN" "http://www.w3.org/Graphics/SVG/1.1/DTD/svg11.dtd">
<svg version="1.1" id="Layer_1" xmlns="http://www.w3.org/2000/svg" xmlns:xlink="http://www.w3.org/1999/xlink" x="0px" y="0px"
	 width="837.575px" height="131.5px" viewBox="0 0 837.575 131.5" enable-background="new 0 0 837.575 131.5" xml:space="preserve">
<g>
	<path d="M9.916,86.993c-1.331-3.487-2.34-7.13-3-10.892V55.398c0.66-3.762,1.669-7.404,3-10.892V86.993z M124.582,55.389
		c-0.661-3.762-1.669-7.401-3-10.887v42.496c1.331-3.485,2.339-7.125,3-10.887V55.389z M124.582,124.583v-23.296
		c-0.938,1.546-1.947,3.043-3,4.506v15.79H9.916V105.79c-1.053-1.464-2.062-2.96-3-4.507v23.3H124.582z M121.582,9.917v15.79
		c1.053,1.463,2.062,2.96,3,4.506V6.917H6.916v23.3c0.938-1.547,1.947-3.043,3-4.507V9.917H121.582z M76.527,127.555
		c-3.505,0.609-7.102,0.945-10.777,0.945s-7.273-0.336-10.777-0.945H43.315c7.005,2.55,14.56,3.945,22.435,3.945
		s15.43-1.396,22.434-3.945H76.527z M57.538,3.555C60.228,3.201,62.965,3,65.75,3s5.522,0.201,8.212,0.555h13.069
		C80.352,1.263,73.197,0,65.75,0c-7.448,0-14.603,1.263-21.282,3.555H57.538z M104.327,12.555h-5.352
		C116.689,23.659,128.5,43.347,128.5,65.75c0,22.146-11.542,41.634-28.915,52.805h5.291C121.019,106.562,131.5,87.358,131.5,65.75
		C131.5,43.899,120.776,24.517,104.327,12.555z M3,65.75c0-22.403,11.81-42.091,29.523-53.195h-5.352
		C10.723,24.517,0,43.899,0,65.75c0,21.608,10.481,40.812,26.623,52.805h5.292C14.541,107.384,3,87.896,3,65.75z"/>
	<g>
		<g>
			<g>
				<g>
					<path d="M153.782,6.881v117.666h200.875v-3V9.881v-3H153.782z M215.289,105.314h-45.906V24.693h45.906
						c38.84,0,46.993,21.786,46.993,40.062C262.282,76.95,257.702,105.314,215.289,105.314z M340.398,76.955l-0.062,1.436h-56.525
						c1.867,8.289,9.666,13.363,20.793,13.363c8.845,0,15.72-3.253,17.514-8.286l0.355-0.996h17.896l-0.292,1.747
						c-2.352,14.078-15.473,22.482-35.099,22.482c-24.406,0-40.177-12.788-40.177-32.578c0-19.937,15.608-32.819,39.765-32.819
						c12.57,0,21.979,3.169,27.965,9.418C338.247,56.689,340.894,65.516,340.398,76.955z"/>
					<path d="M215.289,27.693h-42.906v74.621h42.906c27.958,0,43.993-13.689,43.993-37.559
						C259.282,40.163,244.48,27.693,215.289,27.693z M214.913,91.627h-29.556V38.379h29.556c25.706,0,31.102,14.344,31.102,26.377
						C246.015,88.136,226.528,91.627,214.913,91.627z"/>
					<path d="M303.78,56.289c-9.107,0-16.144,3.802-18.896,10.053h36.749C320.028,59.927,313.634,56.289,303.78,56.289z"/>
					<path d="M214.913,41.379h-26.556v47.248h26.556c12.82,0,28.102-4.142,28.102-23.871
						C243.015,49.244,233.561,41.379,214.913,41.379z"/>
					<path d="M304.567,44.304c-22.678,0-36.765,11.426-36.765,29.819c0,18.244,14.245,29.578,37.177,29.578
						c17.18,0,28.896-6.776,31.775-18.229h-12.22c-2.691,5.754-10.194,9.282-19.931,9.282c-13.295,0-22.738-6.939-24.062-17.68
						l-0.208-1.684h57.111c0.191-9.889-2.188-17.484-7.081-22.594C324.968,47.161,316.288,44.304,304.567,44.304z M280.777,69.342
						l0.536-1.906c2.457-8.726,11.064-14.146,22.467-14.146c12.197,0,20.098,5.376,21.137,14.381l0.191,1.672H280.777z"/>
				</g>
			</g>
		</g>
		<g>
			<path d="M420.856,107.057c-29.158,0-49.267-13.471-49.267-40.199s20.108-40.574,49.267-40.574
				c26.165,0,42.171,11.14,44.223,30.055h-15.863c-3.24-10.106-12.488-16.299-28.359-16.299c-19.748,0-32.879,9.283-32.879,26.818
				c0,17.294,13.131,26.459,32.879,26.459c15.837,0,25.054-6.094,28.318-15.807h15.855
				C462.929,96.346,446.962,107.057,420.856,107.057z"/>
			<path d="M468.579,75.789c0-20.137,15.458-31.318,38.024-31.318c22.409,0,37.708,11.182,37.708,31.318
				c0,20.258-15.299,31.078-37.708,31.078C484.037,106.867,468.579,96.047,468.579,75.789z M528.525,75.789
				c0-12.231-9.329-19.341-21.922-19.341s-22.236,6.989-22.236,19.341s9.487,19.102,22.236,19.102
				C519.038,94.891,528.525,88.141,528.525,75.789z"/>
			<path d="M623.045,45.858v59.622H608.55c0,0-1.104-8.264-1.104-15.373v-3.762c-3.305,10.825-12.003,20.484-27.898,20.484
				c-17.834,0-31.889-12.473-31.889-31.078c0-18.83,14.073-31.281,32.715-31.281c15.415,0,23.836,7.732,27.072,19.031V45.858
				H623.045z M607.446,75.752c0-12.263-8.881-19.109-22.873-19.109c-13.35,0-20.977,7.582-20.977,19.109
				c0,11.489,8.37,19.026,20.977,19.026C598.702,94.778,607.446,87.151,607.446,75.752z"/>
			<path d="M644.97,21.859v83.621h-15.6V21.859H644.97z"/>
			<path d="M668.06,33.39h-18.096V19.674h18.096V33.39z M666.812,45.858v59.622h-15.6V45.858H666.812z"/>
			<path d="M719.614,57.91h-15.352v47.57h-15.6V57.91h-15.352V45.858h15.352V29.51h15.6v16.349h15.352V57.91z"/>
			<path d="M742.698,33.39h-18.096V19.674h18.096V33.39z M741.448,45.858v59.622h-15.6V45.858H741.448z"/>
			<path d="M818.011,85.639c-2.059,12.32-13.352,21.229-33.619,21.229c-22.875,0-38.678-11.309-38.678-31.078
				c0-19.574,15.172-31.318,38.264-31.318c23.326,0,35.336,10.929,34.334,34.086h-56.869c1.141,9.254,9.084,16.364,22.572,16.364
				c9.906,0,16.984-3.83,18.93-9.282H818.011z M762.169,69.508h40.67c-0.922-7.994-7.936-13.053-19.648-13.053
				C771.706,56.455,764.247,62.125,762.169,69.508z"/>
		</g>
		<path d="M837.575,124.547h-484.46V6.881h484.46V124.547z M356.11,121.547h478.471V9.881H356.11V121.547z"/>
	</g>
</g>
</svg>
