<?xml version="1.0" encoding="utf-8"?>
<!-- Generator: Adobe Illustrator 16.0.0, SVG Export Plug-In . SVG Version: 6.00 Build 0)  -->
<!DOCTYPE svg PUBLIC "-//W3C//DTD SVG 1.1//EN" "http://www.w3.org/Graphics/SVG/1.1/DTD/svg11.dtd">
<svg version="1.1" id="Layer_1" xmlns="http://www.w3.org/2000/svg" xmlns:xlink="http://www.w3.org/1999/xlink" x="0px" y="0px"
	 width="623.401px" height="88.693px" viewBox="0 0 623.401 88.693" enable-background="new 0 0 623.401 88.693"
	 xml:space="preserve">
<g>
	<g>
		<path d="M45.906,87.307H0V6.686h45.906c38.84,0,46.992,21.786,46.992,40.062C92.898,58.942,88.319,87.307,45.906,87.307z
			 M3,84.307h42.906c27.958,0,43.992-13.689,43.992-37.559c0-24.593-14.801-37.062-43.992-37.062H3V84.307z M45.531,73.62H15.975
			V20.372h29.557c25.706,0,31.102,14.344,31.102,26.376C76.633,70.129,57.146,73.62,45.531,73.62z M18.975,70.62h26.557
			c12.819,0,28.102-4.142,28.102-23.872c0-15.511-9.455-23.376-28.102-23.376H18.975V70.62z"/>
		<path d="M135.597,88.693c-24.406,0-40.177-12.788-40.177-32.578c0-19.937,15.608-32.818,39.764-32.818
			c12.572,0,21.981,3.169,27.966,9.418c5.715,5.968,8.361,14.794,7.867,26.232l-0.062,1.436h-56.525
			c1.868,8.29,9.666,13.364,20.792,13.364c8.846,0,15.721-3.252,17.515-8.286l0.355-0.996h17.896l-0.292,1.747
			C168.345,80.289,155.224,88.693,135.597,88.693z M135.184,26.297c-22.677,0-36.764,11.426-36.764,29.818
			c0,18.244,14.245,29.578,37.177,29.578c17.18,0,28.896-6.775,31.775-18.229h-12.221c-2.69,5.754-10.194,9.282-19.931,9.282
			c-13.293,0-22.737-6.94-24.061-17.681l-0.208-1.684h57.112c0.19-9.888-2.188-17.483-7.081-22.593
			C155.586,29.154,146.905,26.297,135.184,26.297z M155.726,51.334h-44.331l0.536-1.906c2.457-8.726,11.064-14.146,22.466-14.146
			c12.197,0,20.1,5.376,21.137,14.381L155.726,51.334z M115.502,48.334h36.749c-1.604-6.415-8-10.053-17.854-10.053
			C125.289,38.281,118.254,42.083,115.502,48.334z"/>
	</g>
	<g>
		<path d="M224.389,87.383c-29.158,0-49.266-13.471-49.266-40.199S195.23,6.609,224.389,6.609c26.166,0,42.172,11.14,44.224,30.055
			h-15.864c-3.239-10.106-12.488-16.299-28.359-16.299c-19.747,0-32.879,9.283-32.879,26.818c0,17.294,13.132,26.459,32.879,26.459
			c15.838,0,25.055-6.094,28.319-15.807h15.854C266.462,76.672,250.495,87.383,224.389,87.383z"/>
		<path d="M272.112,56.115c0-20.137,15.458-31.318,38.024-31.318c22.408,0,37.708,11.182,37.708,31.318
			c0,20.258-15.3,31.078-37.708,31.078C287.57,87.193,272.112,76.373,272.112,56.115z M332.059,56.115
			c0-12.231-9.33-19.341-21.922-19.341c-12.593,0-22.236,6.989-22.236,19.341s9.486,19.102,22.236,19.102
			C322.57,75.217,332.059,68.467,332.059,56.115z"/>
		<path d="M426.578,26.185v59.622h-14.496c0,0-1.103-8.264-1.103-15.373v-3.762c-3.305,10.825-12.003,20.484-27.899,20.484
			c-17.833,0-31.889-12.473-31.889-31.078c0-18.83,14.074-31.281,32.715-31.281c15.416,0,23.837,7.732,27.073,19.031V26.185H426.578
			z M410.979,56.078c0-12.263-8.881-19.109-22.874-19.109c-13.35,0-20.977,7.582-20.977,19.109c0,11.489,8.371,19.026,20.977,19.026
			C402.234,75.104,410.979,67.478,410.979,56.078z"/>
		<path d="M448.502,2.186v83.621h-15.6V2.186H448.502z"/>
		<path d="M473.093,13.716h-18.097V0h18.097V13.716z M471.843,26.185v59.622h-15.599V26.185H471.843z"/>
		<path d="M524.646,38.236h-15.352v47.57h-15.6v-47.57h-15.35V26.185h15.35V9.836h15.6v16.349h15.352V38.236z"/>
		<path d="M547.73,13.716h-18.096V0h18.096V13.716z M546.48,26.185v59.622h-15.6V26.185H546.48z"/>
		<path d="M623.043,65.965c-2.059,12.32-13.352,21.229-33.619,21.229c-22.875,0-38.678-11.309-38.678-31.078
			c0-19.574,15.172-31.318,38.264-31.318c23.326,0,35.336,10.929,34.334,34.086h-56.869c1.141,9.254,9.084,16.364,22.572,16.364
			c9.906,0,16.984-3.83,18.93-9.282H623.043z M567.201,49.834h40.67c-0.922-7.994-7.936-13.053-19.648-13.053
			C576.738,36.781,569.279,42.451,567.201,49.834z"/>
	</g>
</g>
</svg>
