<?xml version="1.0" encoding="utf-8"?>
<!-- Generator: Adobe Illustrator 16.0.0, SVG Export Plug-In . SVG Version: 6.00 Build 0)  -->
<!DOCTYPE svg PUBLIC "-//W3C//DTD SVG 1.1//EN" "http://www.w3.org/Graphics/SVG/1.1/DTD/svg11.dtd">
<svg version="1.1" id="Layer_1" xmlns="http://www.w3.org/2000/svg" xmlns:xlink="http://www.w3.org/1999/xlink" x="0px" y="0px"
	 width="137.835px" height="137.833px" viewBox="0 0 137.835 137.833" enable-background="new 0 0 137.835 137.833"
	 xml:space="preserve">
<path d="M130.918,39.094V6.917H99.293C89.889,2.917,79.785,0,69.251,0S48.613,2.917,39.209,6.917H6.918v32.176
	C2.918,48.499,0,58.602,0,69.136S2.918,89.773,6.918,99.18v31.737H39.21c9.404,5,19.507,6.916,30.041,6.916
	s20.637-1.916,30.041-6.916h31.626V99.179c5-9.405,6.917-19.509,6.917-30.043S135.918,48.499,130.918,39.094z M69.011,3.362
	c7.447,0,14.602,1.263,21.281,3.555H77.223c-2.689-0.354-5.427-0.555-8.212-0.555s-5.522,0.201-8.212,0.555h-13.07
	C54.408,4.625,61.562,3.362,69.011,3.362z M10.177,10.279h117.666v23.296c-0.938-1.546-1.947-3.043-3-4.506v-15.79H13.177v15.793
	c-1.053,1.464-2.062,2.96-3,4.507V10.279z M121.918,15.917v9.28c-3-3.223-5.506-6.28-8.729-9.28H121.918z M97.139,15.917
	c10.539,6,19.779,14.793,24.779,25.331v55.776c-5,10.538-14.241,18.893-24.781,24.893H41.365c-10.539-6-19.447-14.354-25.447-24.893
	V41.247c6-10.539,14.908-19.33,25.445-25.33H97.139z M25.312,15.917c-3.223,3-6.395,6.057-9.395,9.28v-9.28H25.312z M3.261,69.112
	c0-21.85,10.723-41.232,27.172-53.195h5.352C18.07,27.021,6.261,46.708,6.261,69.112c0,22.146,11.541,41.633,28.915,52.805h-5.292
	C13.742,109.925,3.261,90.722,3.261,69.112z M13.177,47.869v42.486c-1.331-3.487-2.34-7.13-3-10.892V58.761
	C10.837,54.999,11.846,51.356,13.177,47.869z M25.313,121.917h-9.396v-8.842C18.918,116.298,22.09,118.917,25.313,121.917z
	 M69.011,134.862c-7.875,0-15.43-1.395-22.435-3.945h11.657c3.504,0.609,7.102,0.945,10.777,0.945s7.272-0.336,10.777-0.945h11.656
	C84.44,133.468,76.886,134.862,69.011,134.862z M127.843,127.945H10.177v-23.3c0.938,1.547,1.947,3.043,3,4.507v15.793h111.666
	v-15.79c1.053-1.463,2.062-2.96,3-4.506V127.945z M113.189,121.917c3.224-3,5.729-5.618,8.729-8.842v8.842H113.189z
	 M108.137,121.917h-5.291c17.373-11.172,28.915-30.659,28.915-52.805c0-22.404-11.811-42.092-29.524-53.195h5.352
	c16.449,11.963,27.173,31.346,27.173,53.195C134.761,90.722,124.279,109.925,108.137,121.917z M124.843,90.36V47.864
	c1.331,3.485,2.339,7.125,3,10.887v20.723C127.182,83.235,126.174,86.875,124.843,90.36z"/>
</svg>
