<?xml version="1.0" encoding="utf-8"?>
<!-- Generator: Adobe Illustrator 16.0.0, SVG Export Plug-In . SVG Version: 6.00 Build 0)  -->
<!DOCTYPE svg PUBLIC "-//W3C//DTD SVG 1.1//EN" "http://www.w3.org/Graphics/SVG/1.1/DTD/svg11.dtd">
<svg version="1.1" id="Layer_1" xmlns="http://www.w3.org/2000/svg" xmlns:xlink="http://www.w3.org/1999/xlink" x="0px" y="0px"
	 width="137.835px" height="137.833px" viewBox="0 0 137.835 137.833" enable-background="new 0 0 137.835 137.833"
	 xml:space="preserve">
<g>
	<path fill="#808080" d="M69.285,137.833c-10.534,0-20.637-1.916-30.041-6.916H6.918V99.18C2.918,89.773,0,79.67,0,69.136
		s2.918-20.637,6.918-30.043V6.917h32.325C48.647,2.917,58.751,0,69.285,0s20.638,2.917,30.042,6.917h31.591v32.177
		c5,9.405,6.917,19.508,6.917,30.042s-1.917,20.638-6.917,30.043v31.738H99.326C89.922,135.917,79.819,137.833,69.285,137.833z
		 M121.918,121.917v-8.842c-3,3.224-5.471,5.842-8.694,8.842H121.918z M97.171,121.917c10.54-6,19.747-14.354,24.747-24.893V41.248
		c-5-10.538-14.206-19.331-24.745-25.331H41.397c-10.537,6-19.479,14.791-25.479,25.33v55.777c6,10.539,14.942,18.893,25.481,24.893
		H97.171z M25.348,121.917c-3.224-3-6.43-5.619-9.43-8.842v8.842H25.348z M113.224,15.917c3.223,3,5.694,6.058,8.694,9.28v-9.28
		H113.224z M15.918,25.197c3-3.224,6.206-6.28,9.429-9.28h-9.429V25.197z"/>
	<path d="M13.211,90.355c-1.331-3.487-2.34-7.13-3-10.892V58.761c0.66-3.762,1.669-7.404,3-10.892V90.355z M127.877,58.751
		c-0.661-3.762-1.669-7.401-3-10.887V90.36c1.331-3.485,2.339-7.125,3-10.887V58.751z M127.877,127.945v-23.296
		c-0.938,1.546-1.947,3.043-3,4.506v15.79H13.211v-15.793c-1.053-1.464-2.062-2.96-3-4.507v23.3H127.877z M124.877,13.279v15.79
		c1.053,1.463,2.062,2.96,3,4.506V10.279H10.211v23.3c0.938-1.547,1.947-3.043,3-4.507V13.279H124.877z M79.822,130.917
		c-3.505,0.609-7.102,0.945-10.777,0.945s-7.273-0.336-10.777-0.945H46.61c7.005,2.551,14.56,3.945,22.435,3.945
		s15.43-1.395,22.434-3.945H79.822z M60.833,6.917c2.689-0.354,5.427-0.555,8.212-0.555s5.522,0.201,8.212,0.555h13.069
		c-6.68-2.292-13.834-3.555-21.281-3.555c-7.448,0-14.603,1.263-21.282,3.555H60.833z M107.622,15.917h-5.352
		c17.714,11.104,29.524,30.791,29.524,53.195c0,22.146-11.542,41.633-28.915,52.805h5.291
		c16.143-11.992,26.624-31.195,26.624-52.805C134.795,47.263,124.071,27.88,107.622,15.917z M6.295,69.112
		c0-22.404,11.81-42.092,29.523-53.195h-5.352C14.018,27.88,3.295,47.263,3.295,69.112c0,21.609,10.481,40.812,26.623,52.805h5.292
		C17.836,110.745,6.295,91.258,6.295,69.112z"/>
</g>
</svg>
