<?xml version="1.0" encoding="utf-8"?>
<!-- Generator: Adobe Illustrator 16.0.0, SVG Export Plug-In . SVG Version: 6.00 Build 0)  -->
<!DOCTYPE svg PUBLIC "-//W3C//DTD SVG 1.1//EN" "http://www.w3.org/Graphics/SVG/1.1/DTD/svg11.dtd">
<svg version="1.1" id="Layer_1" xmlns="http://www.w3.org/2000/svg" xmlns:xlink="http://www.w3.org/1999/xlink" x="0px" y="0px"
	 width="683.792px" height="117.666px" viewBox="0 0 683.792 117.666" enable-background="new 0 0 683.792 117.666"
	 xml:space="preserve">
<g>
	<g>
		<g>
			<g>
				<path d="M149.997,49.408c-9.107,0-16.143,3.802-18.895,10.053h36.75C166.247,53.046,159.851,49.408,149.997,49.408z"/>
				<path d="M61.507,20.812H18.601v74.621h42.906c27.958,0,43.992-13.689,43.992-37.559C105.499,33.282,90.698,20.812,61.507,20.812
					z M61.132,84.746H31.575V31.498h29.557c25.705,0,31.102,14.344,31.102,26.377C92.233,81.255,72.747,84.746,61.132,84.746z"/>
				<path d="M61.132,34.498H34.575v47.248h26.557c12.819,0,28.102-4.142,28.102-23.871C89.233,42.363,79.778,34.498,61.132,34.498z"
					/>
				<path d="M0,0v117.666h200.874v-3V3V0H0z M61.507,98.434H15.601V17.812h45.906c38.84,0,46.992,21.786,46.992,40.062
					C108.499,70.069,103.921,98.434,61.507,98.434z M186.616,70.074l-0.062,1.436H130.03c1.866,8.289,9.664,13.363,20.791,13.363
					c8.846,0,15.721-3.253,17.516-8.286l0.355-0.996h17.896l-0.292,1.747c-2.352,14.078-15.473,22.482-35.099,22.482
					c-24.406,0-40.177-12.788-40.177-32.578c0-19.937,15.608-32.819,39.764-32.819c12.572,0,21.98,3.169,27.965,9.418
					C184.464,49.809,187.111,58.635,186.616,70.074z"/>
				<path d="M150.784,37.423c-22.676,0-36.764,11.426-36.764,29.819c0,18.244,14.245,29.578,37.177,29.578
					c17.179,0,28.896-6.776,31.775-18.229h-12.22c-2.691,5.754-10.195,9.282-19.932,9.282c-13.293,0-22.738-6.939-24.061-17.68
					l-0.207-1.684h57.11c0.191-9.889-2.188-17.484-7.081-22.594C171.187,40.28,162.507,37.423,150.784,37.423z M126.995,62.461
					l0.537-1.906c2.455-8.726,11.064-14.146,22.465-14.146c12.197,0,20.1,5.376,21.137,14.381l0.193,1.672H126.995z"/>
			</g>
		</g>
	</g>
	<g>
		<path d="M267.074,100.176c-29.159,0-49.267-13.471-49.267-40.199s20.107-40.574,49.267-40.574
			c26.165,0,42.171,11.14,44.224,30.055h-15.864c-3.239-10.106-12.489-16.299-28.359-16.299c-19.747,0-32.879,9.283-32.879,26.818
			c0,17.294,13.132,26.459,32.879,26.459c15.837,0,25.054-6.094,28.319-15.807h15.854
			C309.147,89.465,293.181,100.176,267.074,100.176z"/>
		<path d="M314.798,68.908c0-20.137,15.457-31.318,38.023-31.318c22.409,0,37.709,11.182,37.709,31.318
			c0,20.258-15.3,31.078-37.709,31.078C330.255,99.986,314.798,89.166,314.798,68.908z M374.743,68.908
			c0-12.231-9.33-19.341-21.922-19.341s-22.236,6.989-22.236,19.341s9.486,19.102,22.236,19.102
			C365.255,88.01,374.743,81.26,374.743,68.908z"/>
		<path d="M469.263,38.978V98.6h-14.495c0,0-1.103-8.264-1.103-15.373v-3.762c-3.305,10.825-12.004,20.484-27.899,20.484
			c-17.833,0-31.889-12.473-31.889-31.078c0-18.83,14.073-31.281,32.714-31.281c15.416,0,23.838,7.732,27.074,19.031V38.978H469.263
			z M453.665,68.871c0-12.263-8.881-19.109-22.874-19.109c-13.35,0-20.977,7.582-20.977,19.109c0,11.489,8.37,19.026,20.977,19.026
			C444.919,87.897,453.665,80.271,453.665,68.871z"/>
		<path d="M491.187,14.979V98.6h-15.6V14.979H491.187z"/>
		<path d="M514.276,26.509h-18.096V12.793h18.096V26.509z M513.028,38.978V98.6h-15.6V38.978H513.028z"/>
		<path d="M565.831,51.029h-15.352V98.6h-15.6v-47.57h-15.352V38.978h15.352V22.629h15.6v16.349h15.352V51.029z"/>
		<path d="M588.915,26.509h-18.096V12.793h18.096V26.509z M587.665,38.978V98.6h-15.6V38.978H587.665z"/>
		<path d="M664.228,78.758c-2.059,12.32-13.352,21.229-33.619,21.229c-22.875,0-38.678-11.309-38.678-31.078
			c0-19.574,15.172-31.318,38.264-31.318c23.326,0,35.336,10.929,34.334,34.086h-56.869c1.141,9.254,9.084,16.364,22.572,16.364
			c9.906,0,16.984-3.83,18.93-9.282H664.228z M608.386,62.627h40.67c-0.922-7.994-7.936-13.053-19.648-13.053
			C617.923,49.574,610.464,55.244,608.386,62.627z"/>
	</g>
	<path d="M683.792,117.666H199.333V0h484.459V117.666z M202.327,114.666h478.471V3H202.327V114.666z"/>
</g>
</svg>
