<?xml version="1.0" encoding="utf-8"?>
<!-- Generator: Adobe Illustrator 16.0.0, SVG Export Plug-In . SVG Version: 6.00 Build 0)  -->
<!DOCTYPE svg PUBLIC "-//W3C//DTD SVG 1.1//EN" "http://www.w3.org/Graphics/SVG/1.1/DTD/svg11.dtd">
<svg version="1.1" id="Layer_1" xmlns="http://www.w3.org/2000/svg" xmlns:xlink="http://www.w3.org/1999/xlink" x="0px" y="0px"
	 width="254.375px" height="117.666px" viewBox="0 0 254.375 117.666" enable-background="new 0 0 254.375 117.666"
	 xml:space="preserve">
<g>
	<path d="M191.324,100.176c-29.159,0-49.267-13.471-49.267-40.199s20.107-40.574,49.267-40.574c26.165,0,42.171,11.14,44.224,30.055
		h-15.864c-3.239-10.106-12.489-16.299-28.359-16.299c-19.747,0-32.879,9.283-32.879,26.818c0,17.294,13.132,26.459,32.879,26.459
		c15.837,0,25.054-6.094,28.319-15.807h15.854C233.397,89.465,217.431,100.176,191.324,100.176z"/>
	<path d="M64.507,20.812H21.601v74.621h42.906c27.958,0,43.992-13.689,43.992-37.559C108.499,33.282,93.698,20.812,64.507,20.812z
		 M64.132,84.746H34.575V31.498h29.557c25.705,0,31.102,14.344,31.102,26.377C95.233,81.255,75.747,84.746,64.132,84.746z
		 M92.233,57.875c0,19.729-15.282,23.871-28.102,23.871H37.575V34.498h26.557C82.778,34.498,92.233,42.363,92.233,57.875z M0,0
		v117.666h125.124v-3V3V0H0z M64.507,98.434H18.601V17.812h45.906c38.84,0,46.992,21.786,46.992,40.062
		C111.499,70.069,106.921,98.434,64.507,98.434z"/>
	<path d="M254.375,117.666H123.583V0h130.792V117.666z M126.583,114.666h124.792V3H126.583V114.666z"/>
</g>
</svg>
