<?xml version="1.0" encoding="utf-8"?>
<!-- Generator: Adobe Illustrator 16.0.0, SVG Export Plug-In . SVG Version: 6.00 Build 0)  -->
<!DOCTYPE svg PUBLIC "-//W3C//DTD SVG 1.1//EN" "http://www.w3.org/Graphics/SVG/1.1/DTD/svg11.dtd">
<svg version="1.1" id="Layer_1" xmlns="http://www.w3.org/2000/svg" xmlns:xlink="http://www.w3.org/1999/xlink" x="0px" y="0px"
	 width="408.074px" height="131.5px" viewBox="0 0 408.074 131.5" enable-background="new 0 0 408.074 131.5" xml:space="preserve">
<g>
	<path d="M9.916,86.993c-1.331-3.487-2.34-7.13-3-10.892V55.398c0.66-3.762,1.669-7.404,3-10.892V86.993z M124.582,55.389
		c-0.661-3.762-1.669-7.401-3-10.887v42.496c1.331-3.485,2.339-7.125,3-10.887V55.389z M124.582,124.583v-23.296
		c-0.938,1.546-1.947,3.043-3,4.506v15.79H9.916V105.79c-1.053-1.464-2.062-2.96-3-4.507v23.3H124.582z M121.582,9.917v15.79
		c1.053,1.463,2.062,2.96,3,4.506V6.917H6.916v23.3c0.938-1.547,1.947-3.043,3-4.507V9.917H121.582z M76.527,127.555
		c-3.505,0.609-7.102,0.945-10.777,0.945s-7.273-0.336-10.777-0.945H43.315c7.005,2.55,14.56,3.945,22.435,3.945
		s15.43-1.396,22.434-3.945H76.527z M57.538,3.555C60.228,3.201,62.965,3,65.75,3s5.522,0.201,8.212,0.555h13.069
		C80.352,1.263,73.197,0,65.75,0c-7.448,0-14.603,1.263-21.282,3.555H57.538z M104.327,12.555h-5.352
		C116.689,23.659,128.5,43.347,128.5,65.75c0,22.146-11.542,41.634-28.915,52.805h5.291C121.019,106.562,131.5,87.358,131.5,65.75
		C131.5,43.899,120.776,24.517,104.327,12.555z M3,65.75c0-22.403,11.81-42.091,29.523-53.195h-5.352
		C10.723,24.517,0,43.899,0,65.75c0,21.608,10.481,40.812,26.623,52.805h5.292C14.541,107.384,3,87.896,3,65.75z"/>
	<g>
		<path d="M345.023,107.319c-29.159,0-49.267-13.471-49.267-40.199s20.107-40.574,49.267-40.574
			c26.165,0,42.171,11.14,44.224,30.055h-15.864c-3.239-10.106-12.489-16.299-28.359-16.299c-19.747,0-32.879,9.283-32.879,26.818
			c0,17.294,13.132,26.459,32.879,26.459c15.837,0,25.054-6.094,28.319-15.807h15.854
			C387.097,96.608,371.13,107.319,345.023,107.319z"/>
		<path d="M218.206,27.956H175.3v74.621h42.906c27.958,0,43.992-13.689,43.992-37.559C262.198,40.426,247.397,27.956,218.206,27.956
			z M217.831,91.89h-29.557V38.642h29.557c25.705,0,31.102,14.344,31.102,26.377C248.933,88.398,229.446,91.89,217.831,91.89z
			 M245.933,65.019c0,19.729-15.282,23.871-28.102,23.871h-26.557V41.642h26.557C236.478,41.642,245.933,49.507,245.933,65.019z
			 M153.699,7.144V124.81h125.124v-3V10.144v-3H153.699z M218.206,105.577H172.3V24.956h45.906c38.84,0,46.992,21.786,46.992,40.062
			C265.198,77.213,260.62,105.577,218.206,105.577z"/>
		<path d="M408.074,124.81H277.282V7.144h130.792V124.81z M280.282,121.81h124.792V10.144H280.282V121.81z"/>
	</g>
</g>
</svg>
